ModelForces
version=1
nRows=4
nColumns=155
inDegrees=no

This file contains the forces exerted on a model during a simulation.

A force is a generalized force, meaning that it can be either a force (N) or a torque (Nm).

Units are S.I. units (second, meters, Newtons, ...)
Angles are in degrees.

endheader
time	glut_med1_r	glut_med2_r	glut_med3_r	glut_min1_r	glut_min2_r	glut_min3_r	semimem_r	semiten_r	bifemlh_r	bifemsh_r	sar_r	add_long_r	add_brev_r	add_mag1_r	add_mag2_r	add_mag3_r	tfl_r	pect_r	grac_r	glut_max1_r	glut_max2_r	glut_max3_r	iliacus_r	psoas_r	quad_fem_r	gem_r	peri_r	rect_fem_r	vas_med_r	vas_int_r	vas_lat_r	med_gas_r	lat_gas_r	soleus_r	tib_post_r	flex_dig_r	flex_hal_r	tib_ant_r	per_brev_r	per_long_r	per_tert_r	ext_dig_r	ext_hal_r	glut_med1_l	glut_med2_l	glut_med3_l	glut_min1_l	glut_min2_l	glut_min3_l	semimem_l	semiten_l	bifemlh_l	bifemsh_l	sar_l	add_long_l	add_brev_l	add_mag1_l	add_mag2_l	add_mag3_l	tfl_l	pect_l	grac_l	glut_max1_l	glut_max2_l	glut_max3_l	iliacus_l	psoas_l	quad_fem_l	gem_l	peri_l	rect_fem_l	vas_med_l	vas_int_l	vas_lat_l	med_gas_l	lat_gas_l	soleus_l	tib_post_l	flex_dig_l	flex_hal_l	tib_ant_l	per_brev_l	per_long_l	per_tert_l	ext_dig_l	ext_hal_l	ercspn_r	ercspn_l	intobl_r	intobl_l	extobl_r	extobl_l	femur_lat_meniscii_r.femur_lat_r.force.X	femur_lat_meniscii_r.femur_lat_r.force.Y	femur_lat_meniscii_r.femur_lat_r.force.Z	femur_lat_meniscii_r.femur_lat_r.torque.X	femur_lat_meniscii_r.femur_lat_r.torque.Y	femur_lat_meniscii_r.femur_lat_r.torque.Z	femur_lat_meniscii_r.meniscus_lat_r.force.X	femur_lat_meniscii_r.meniscus_lat_r.force.Y	femur_lat_meniscii_r.meniscus_lat_r.force.Z	femur_lat_meniscii_r.meniscus_lat_r.torque.X	femur_lat_meniscii_r.meniscus_lat_r.torque.Y	femur_lat_meniscii_r.meniscus_lat_r.torque.Z	femur_med_meniscii_r.femur_med_r.force.X	femur_med_meniscii_r.femur_med_r.force.Y	femur_med_meniscii_r.femur_med_r.force.Z	femur_med_meniscii_r.femur_med_r.torque.X	femur_med_meniscii_r.femur_med_r.torque.Y	femur_med_meniscii_r.femur_med_r.torque.Z	femur_med_meniscii_r.meniscus_med_r.force.X	femur_med_meniscii_r.meniscus_med_r.force.Y	femur_med_meniscii_r.meniscus_med_r.force.Z	femur_med_meniscii_r.meniscus_med_r.torque.X	femur_med_meniscii_r.meniscus_med_r.torque.Y	femur_med_meniscii_r.meniscus_med_r.torque.Z	femur_med_tibia_r.tibia_upper_r.force.X	femur_med_tibia_r.tibia_upper_r.force.Y	femur_med_tibia_r.tibia_upper_r.force.Z	femur_med_tibia_r.tibia_upper_r.torque.X	femur_med_tibia_r.tibia_upper_r.torque.Y	femur_med_tibia_r.tibia_upper_r.torque.Z	femur_med_tibia_r.femur_med_r.force.X	femur_med_tibia_r.femur_med_r.force.Y	femur_med_tibia_r.femur_med_r.force.Z	femur_med_tibia_r.femur_med_r.torque.X	femur_med_tibia_r.femur_med_r.torque.Y	femur_med_tibia_r.femur_med_r.torque.Z	femur_lat_tibia_r.tibia_upper_r.force.X	femur_lat_tibia_r.tibia_upper_r.force.Y	femur_lat_tibia_r.tibia_upper_r.force.Z	femur_lat_tibia_r.tibia_upper_r.torque.X	femur_lat_tibia_r.tibia_upper_r.torque.Y	femur_lat_tibia_r.tibia_upper_r.torque.Z	femur_lat_tibia_r.femur_lat_r.force.X	femur_lat_tibia_r.femur_lat_r.force.Y	femur_lat_tibia_r.femur_lat_r.force.Z	femur_lat_tibia_r.femur_lat_r.torque.X	femur_lat_tibia_r.femur_lat_r.torque.Y	femur_lat_tibia_r.femur_lat_r.torque.Z	aACL_R	pACL_R	aPCL_R	pPCL_R	aMCL_R	mMCL_R	pMCL_R	aLCL_R	mLCL_R	pLCL_R	aPCL_L	pPCL_L	aMCL_L	aLCL_L
      0.16296251	     11.50752421	      8.40193504	      9.03741380	      3.87822303	      4.50622223	      4.88257283	      0.00000000	    164.97975209	    143.28206047	    299.99901934	    129.78955849	      8.36270375	      6.01895268	      2.81601535	      3.66422159	      6.17956071	      5.02726302	      3.27368706	     99.31668745	      5.42515305	      8.25316747	      6.20277797	     27.65092500	     18.64751815	      5.33371806	      3.67310941	      6.25804921	     52.70220310	     31.10416749	     33.32516761	     45.12565452	      0.00000000	      0.00000000	      0.00000000	      0.00000000	      0.00000000	      0.00000000	     33.53529871	      2.35056662	      2.88700771	     20.22945876	     41.26267085	     10.57947771	     11.50752421	      8.40193504	      9.03741380	      3.87822303	      4.50622223	      4.88257283	      0.00000000	      6.22886289	     12.29486384	     10.61615760	      2.21275765	      8.36270375	      6.01895268	      2.81601535	      3.66422159	      6.17956071	      5.45288032	      3.27368706	      2.28453199	      5.42515305	      8.25316747	      6.20277797	     27.65092500	     18.64751815	      5.33371806	      3.67310941	      6.25804921	     17.13902268	      0.00000000	      0.00000000	      0.00000000	     21.20630644	     10.02451819	     51.09470878	     51.13687320	      5.48423327	      4.90693694	     13.33086716	      7.13414443	     18.28198008	      2.88310631	      8.90015423	      2.79503409	     36.50503469	     36.50503469	     13.57097418	     13.57097418	     30.92589757	     30.92589757	    111.57330742	    203.57183204	     24.30496430	    -14.67346891	      2.71397330	     43.64224342	   -111.57330742	   -203.57183204	    -24.30496430	      5.58988437	     -3.37068340	      3.55688982	     26.89867037	     25.64316786	     13.39759257	     -4.81453460	     -0.61038823	     10.79086297	    -26.89867037	    -25.64316786	    -13.39759257	     -0.32025682	      0.29941793	      0.11358308	   -723.40911574	   -689.42452809	    218.77951089	    -15.96553609	     16.41270425	     -1.01454471	    723.40911574	    689.42452809	   -218.77951089	    101.44958707	    -13.04910389	    294.27276646	      0.00000000	      0.00000000	      0.00000000	      0.00000000	      0.00000000	      0.00000000	      0.00000000	      0.00000000	      0.00000000	      0.00000000	      0.00000000	      0.00000000	     -1.18851579	      0.00000000	    559.71465369	    365.06584952	      0.00000000	      0.00000000	      0.00000000	      0.00000000	      0.00000000	      0.00000000	      0.00000000	      0.00000000	      0.00000001	      0.00000000
      0.16329454	     11.49130802	      8.38997034	      9.02439051	      3.87292602	      4.50042502	      4.87517081	      0.00000000	    165.06571650	    143.30752500	    300.02870265	    129.81109324	      8.35065829	      6.01080824	      2.98570396	      3.65890950	      6.16993591	      5.01729914	      3.26918377	     99.33067410	      5.41739599	      8.24134049	      6.19375222	     27.62886881	     18.62236379	      5.32627475	      3.66947070	      6.25472772	     52.97935727	     31.16430515	     33.34990007	     45.11395249	      0.00000000	      0.00000000	      0.00000000	      0.00000000	      0.00000000	      0.00000000	     33.58967970	      2.33742106	      2.88396123	     22.46969223	     41.49457879	     10.63374786	     11.49130802	      8.38997034	      9.02439051	      3.87292602	      4.50042502	      4.87517081	      0.00000000	      6.21943462	     12.27678324	     10.60132532	      2.20974949	      8.35065829	      6.01080824	      2.98570396	      3.65890950	      6.16993591	      5.44695200	      3.26918377	      2.28137172	      5.41739599	      8.24134049	      6.19375222	     27.62886881	     18.62236379	      5.32627475	      3.66947070	      6.25472772	     17.11126015	      0.00000000	      0.00000000	      0.00000000	     21.19888445	     10.01982537	     51.02928955	     51.10181132	      5.47690156	      4.90034753	     13.31054301	      7.12261876	     18.26057128	      2.87923155	      8.88475609	      2.79037256	     36.45506312	     36.45506312	     13.55090893	     13.55090893	     30.90770018	     30.90770018	    111.47253992	    203.80805238	     24.99082439	    -14.96475336	      2.71736722	     43.58622508	   -111.47253992	   -203.80805238	    -24.99082439	      5.61615350	     -3.38971848	      3.59680308	     26.98864762	     25.40998326	     13.22100122	     -4.74741607	     -0.61185734	     10.82536855	    -26.98864762	    -25.40998326	    -13.22100122	     -0.32010276	      0.30342745	      0.11197847	   -727.08799928	   -688.52485951	    219.87234480	    -15.95581329	     16.51035707	     -1.00631537	    727.08799928	    688.52485951	   -219.87234480	    101.87339047	    -13.11881068	    295.74462522	      0.00000000	      0.00000000	      0.00000000	      0.00000000	      0.00000000	      0.00000000	      0.00000000	      0.00000000	      0.00000000	      0.00000000	      0.00000000	      0.00000000	     -1.14659771	      0.00000000	    563.18422591	    366.81815859	      0.00000000	      0.00000000	      0.00000000	      0.00000000	      0.00000000	      0.00000000	      0.00000000	      0.00000000	      0.00000001	      0.00000000
      0.16402016	     11.45600361	      8.36400714	      8.99613068	      3.86143080	      4.48784507	      4.85910683	      0.00000000	    165.24027398	    143.38343080	    300.15880585	    129.84437322	      8.32452034	      5.99313339	      3.27818593	      3.64738236	      6.14904991	      4.99514577	      3.25941119	     99.34888171	      5.40056389	      8.21567705	      6.17416737	     27.58101225	     18.56778577	      5.31012240	      3.66157608	      6.24730682	     53.56430781	     30.97640720	     33.28775633	     45.04871497	      0.00000000	      0.00000000	      0.00000000	      0.00000000	      0.00000000	      0.00000000	     33.70646270	      2.30859794	      2.87695427	     61.17939735	     41.82669143	     10.70628023	     11.45600361	      8.36400714	      8.99613068	      3.86143080	      4.48784507	      4.85910683	      0.00000000	      6.19897617	     12.23742662	     10.56913877	      2.20322133	      8.32452034	      5.99313339	      3.27818593	      3.64738236	      6.14904991	      5.43408597	      3.25941119	      2.27451369	      5.40056389	      8.21567705	      6.17416737	     27.58101225	     18.56778577	      5.31012240	      3.66157608	      6.24730682	     17.05099073	      0.00000000	      0.00000000	      0.00000000	     21.18217918	     10.00935705	     50.88638736	     51.02557712	      5.46076859	      4.88578960	     13.26636760	      7.09757697	     18.21395816	      2.87082424	      8.85178861	      2.78044137	     36.34661852	     36.34661852	     13.50736910	     13.50736910	     30.86821735	     30.86821735	    112.39090748	    204.14578616	     25.77865597	    -15.31333141	      2.74313027	     43.93626528	   -112.39090748	   -204.14578616	    -25.77865597	      5.65973472	     -3.43712522	      3.64777626	     27.05474772	     24.73517150	     12.69574982	     -4.55242276	     -0.61046491	     10.84636127	    -27.05474772	    -24.73517150	    -12.69574982	     -0.31446116	      0.31070198	      0.10903769	   -734.49059396	   -684.56264093	    219.41605343	    -15.82373018	     16.62849799	     -1.02887752	    734.49059396	    684.56264093	   -219.41605343	    101.58782075	    -13.23298141	    298.71612784	      0.00000000	      0.00000000	      0.00000000	      0.00000000	      0.00000000	      0.00000000	      0.00000000	      0.00000000	      0.00000000	      0.00000000	      0.00000000	      0.00000000	     -1.04891937	      0.00000000	    570.62954190	    370.40503629	      0.00000000	      0.00000000	      0.00000000	      0.00000000	      0.00000000	      0.00000000	      0.00000000	      0.00000000	      0.00000001	      0.00000000
      0.16422984	     11.44583722	      8.35655163	      8.98801581	      3.85812966	      4.48423263	      4.85449352	      0.00000000	    165.28310210	    143.40694259	    300.18706686	    129.84680083	      8.31701478	      5.98805753	      3.34681145	      3.64407228	      6.14305228	      4.98859197	      3.25660480	     99.34772744	      5.39573059	      8.20830784	      6.16854366	     27.56727119	     18.55211498	      5.30548403	      3.65930943	      6.24512172	     53.76031924	     31.10391212	     33.31710192	     45.06527215	      0.00000000	      0.00000000	      0.00000000	      0.00000000	      0.00000000	      0.00000000	     33.74145917	      2.30035616	      2.87492834	     22.75380703	     42.09170908	     10.77337005	     11.44583722	      8.35655163	      8.98801581	      3.85812966	      4.48423263	      4.85449352	      0.00000000	      6.19310157	     12.22609458	     10.55989600	      2.20134659	      8.31701478	      5.98805753	      3.34681145	      3.64407228	      6.14305228	      5.43039099	      3.25660480	      2.27254428	      5.39573059	      8.20830784	      6.16854366	     27.56727119	     18.55211498	      5.30548403	      3.65930943	      6.24512172	     17.03367765	      0.00000000	      0.00000000	      0.00000000	     21.17722928	     10.00627846	     50.84511451	     51.00364819	      5.45607785	      4.88154183	     13.25366432	      7.09037822	     18.20053356	      2.86841024	      8.84243574	      2.77763650	     36.31547610	     36.31547610	     13.49486670	     13.49486670	     30.85688090	     30.85688090	    112.60781222	    204.00057391	     25.53109374	    -15.21107866	      2.74479884	     44.01999743	   -112.60781222	   -204.00057391	    -25.53109374	      5.65254179	     -3.43529464	      3.65627826	     27.20529811	     24.63080422	     12.53712748	     -4.49068158	     -0.61346722	     10.90561914	    -27.20529811	    -24.63080422	    -12.53712748	     -0.31542778	      0.31617742	      0.10759939	   -736.39695383	   -683.41737737	    219.52448139	    -15.79196036	     16.66394665	     -1.02977236	    736.39695383	    683.41737737	   -219.52448139	    101.60461230	    -13.26217671	    299.47942028	      0.00000000	      0.00000000	      0.00000000	      0.00000000	      0.00000000	      0.00000000	      0.00000000	      0.00000000	      0.00000000	      0.00000000	      0.00000000	      0.00000000	     -1.02971655	      0.00000000	    572.73714682	    371.36584405	      0.00000000	      0.00000000	      0.00000000	      0.00000000	      0.00000000	      0.00000000	      0.00000000	      0.00000000	      0.00000001	      0.00000000
